# xmcd CD database file
#
# Track frame offsets:
#	151
#	14975
#	26846
#	40917
#	52489
#	65058
#	75788
#	86686
#	95392
#	105324
#	117415
#	126906
#	137053
#	145489
#	161034
#	171368
#	181707
#	193607
#	202888
#	210437
#	221606
#
# Disc length: 2972 seconds
#
# Revision: 0
# Processed by: cddbd v1.5.1PL0 Copyright (c) Steve Scherf et al.
# Submitted via: CDex 1.51
#
DISCID=360b9a15
DTITLE=Rusty Reid and Joe Loutchan - Lonesome for the Yukon
DYEAR=2004
DGENRE=Country
TTITLE0=Swingin' Bill Reid
TTITLE1=Rusty Reid's Reel
TTITLE2=Andy' old Time Waltz
TTITLE3=Roadhouse Ramble
TTITLE4=Twilight Waltz
TTITLE5=Fisher's Hornpipe
TTITLE6=Southern Waltz
TTITLE7=Joe's Breakdown
TTITLE8=Red Carpet Waltz
TTITLE9=Logger's Breakdown and Mitten's Breakdown
TTITLE10=Suzanne's Waltz
TTITLE11=Little Burnt Potato Jig
TTITLE12=Flowers of Edinburgh
TTITLE13=Shannon Waltz
TTITLE14=Lone Star Rag
TTITLE15=Ragtime Annie
TTITLE16=Manitoba Waltz
TTITLE17=Boil the Cabage Down
TTITLE18=The Whitehorse Two Step
TTITLE19=Lonesome for the Yukon
TTITLE20=Break Time Theme
EXTD=YEAR: 2004
EXTT0=
EXTT1=
EXTT2=
EXTT3=
EXTT4=
EXTT5=
EXTT6=
EXTT7=
EXTT8=
EXTT9=
EXTT10=
EXTT11=
EXTT12=
EXTT13=
EXTT14=
EXTT15=
EXTT16=
EXTT17=
EXTT18=
EXTT19=
EXTT20=
PLAYORDER=
